<?xml version="1.0" encoding="utf-8"?><!DOCTYPE svg PUBLIC "-//W3C//DTD SVG 1.1//EN" "http://www.w3.org/Graphics/SVG/1.1/DTD/svg11.dtd"><svg version="1.1" xmlns="http://www.w3.org/2000/svg" xmlns:xlink="http://www.w3.org/1999/xlink" width="20" height="20" viewBox="0 0 20 20" data-tags="dribbble"><g transform="scale(0.01953125 0.01953125)"><path d="M489.728 379.955c-69.53-123.597-143.923-224.41-149.35-231.834-112.179 53.043-195.891 156.416-222.054 280.934 10.547 0.205 178.278 2.202 371.405-49.101zM539.802 515.123c5.222-1.69 10.547-3.277 15.821-4.813-10.086-22.886-21.094-45.824-32.614-68.403-207.155 62.054-405.914 57.549-412.928 57.344-0.154 4.301-0.358 8.499-0.358 12.8 0 103.373 39.066 197.683 103.219 268.902l-0.256-0.307c0 0 110.080-195.277 327.117-265.523zM264.755 829.133v-0.205c-2.97-2.304-6.144-4.403-9.114-6.912 5.427 4.352 9.114 7.117 9.114 7.117zM415.642 121.446c-0.358 0.102-0.768 0.205-0.768 0.205 0.307-0.102 0.717-0.102 0.717-0.102l0.051-0.102zM777.677 210.125c-70.861-62.362-163.789-100.403-265.677-100.403-32.717 0-64.41 3.994-94.822 11.315 6.144 8.192 81.664 108.493 150.426 234.701 151.654-56.781 208.947-143.974 210.074-145.613zM512 983.040c-260.096 0-470.989-210.893-470.989-470.989-0.051-260.198 210.842-471.091 470.989-471.091 260.198 0 471.040 210.893 471.040 471.091 0 260.096-210.842 470.989-471.040 470.989zM580.403 577.843c-236.083 82.278-314.061 247.706-315.648 251.085 68.301 53.299 153.907 85.299 247.194 85.299 55.706 0 108.8-11.315 157.030-31.795-5.939-35.277-29.338-158.515-85.965-305.51-0.819 0.307-1.69 0.614-2.611 0.922zM598.528 415.744c9.421 19.098 18.33 38.605 26.778 58.317 3.021 6.912 5.837 13.926 8.704 20.787 138.906-17.51 275.712 12.186 280.218 13.107-0.973-95.386-35.123-182.886-91.494-251.494-0.922 1.178-65.485 94.362-224.205 159.283zM658.483 558.336c52.787 145.203 74.189 263.27 78.285 287.283 90.317-60.979 154.522-157.696 172.39-269.824-7.987-2.56-120.627-38.246-250.675-17.459z" /></g></svg>